<?xml version="1.0" encoding="UTF-8"?>
<svg id="Layer_1" xmlns="http://www.w3.org/2000/svg" version="1.1" viewBox="0 0 261 318.8">
  <!-- Generator: Adobe Illustrator 29.1.0, SVG Export Plug-In . SVG Version: 2.1.0 Build 142)  -->
  <defs>
    <style>
      .st0 {
        fill: none;
      }

      .st0, .st1, .st2, .st3 {
        stroke: #030000;
      }

      .st0, .st1, .st3 {
        stroke-linejoin: round;
      }

      .st0, .st3 {
        stroke-width: 3.8px;
      }

      .st1, .st2 {
        fill: #ccc;
        stroke-width: 3.3px;
      }

      .st4, .st5 {
        isolation: isolate;
      }

      .st5 {
        font-family: Arial-BoldMT, Arial;
        font-size: 48px;
        font-weight: 700;
      }
    </style>
  </defs>
  <path class="st2" d="M25.2,4.3v302.6h213.7c8.4,0,15.2-6.8,15.2-15.2V19.5c0-8.4-6.7-15.2-15.2-15.2H25.2Z"/>
  <path class="st0" d="M28.5,154c0,3-5,5.4-11.1,5.4s-11.1-2.4-11.1-5.4,5-5.4,11.1-5.4,11.1,2.4,11.1,5.4Z"/>
  <path class="st0" d="M28.5,162.7c0,3-5,5.4-11.1,5.4s-11.1-2.4-11.1-5.4,5-5.4,11.1-5.4,11.1,2.4,11.1,5.4Z"/>
  <path class="st0" d="M28.5,171.5c0,3-5,5.4-11.1,5.4s-11.1-2.4-11.1-5.4,5-5.4,11.1-5.4,11.1,2.4,11.1,5.4Z"/>
  <path class="st0" d="M28.5,180.2c0,3-5,5.4-11.1,5.4s-11.1-2.4-11.1-5.4,5-5.4,11.1-5.4,11.1,2.4,11.1,5.4Z"/>
  <path class="st0" d="M28.5,189c0,3-5,5.4-11.1,5.4s-11.1-2.4-11.1-5.4,5-5.4,11.1-5.4,11.1,2.4,11.1,5.4Z"/>
  <path class="st0" d="M28.5,197.7c0,3-5,5.4-11.1,5.4s-11.1-2.4-11.1-5.4,5-5.4,11.1-5.4,11.1,2.4,11.1,5.4Z"/>
  <path class="st0" d="M28.5,206.4c0,3-5,5.4-11.1,5.4s-11.1-2.4-11.1-5.4,5-5.4,11.1-5.4,11.1,2.4,11.1,5.4Z"/>
  <path class="st0" d="M28.5,215.2c0,3-5,5.4-11.1,5.4s-11.1-2.4-11.1-5.4,5-5.4,11.1-5.4,11.1,2.4,11.1,5.4Z"/>
  <path class="st0" d="M28.5,223.9c0,3-5,5.4-11.1,5.4s-11.1-2.4-11.1-5.4,5-5.4,11.1-5.4,11.1,2.4,11.1,5.4Z"/>
  <path class="st0" d="M28.5,232.7c0,3-5,5.4-11.1,5.4s-11.1-2.4-11.1-5.4,5-5.4,11.1-5.4,11.1,2.4,11.1,5.4Z"/>
  <path class="st0" d="M28.5,241.4c0,3-5,5.4-11.1,5.4s-11.1-2.4-11.1-5.4,5-5.4,11.1-5.4,11.1,2.4,11.1,5.4Z"/>
  <path class="st0" d="M28.5,250.1c0,3-5,5.4-11.1,5.4s-11.1-2.4-11.1-5.4,5-5.4,11.1-5.4,11.1,2.4,11.1,5.4Z"/>
  <path class="st0" d="M28.5,258.9c0,3-5,5.4-11.1,5.4s-11.1-2.4-11.1-5.4,5-5.4,11.1-5.4,11.1,2.4,11.1,5.4Z"/>
  <path class="st0" d="M28.5,267.6c0,3-5,5.4-11.1,5.4s-11.1-2.4-11.1-5.4,5-5.4,11.1-5.4,11.1,2.4,11.1,5.4Z"/>
  <path class="st0" d="M28.5,276.3c0,3-5,5.4-11.1,5.4s-11.1-2.4-11.1-5.4,5-5.4,11.1-5.4,11.1,2.4,11.1,5.4Z"/>
  <path class="st0" d="M28.5,285.1c0,3-5,5.4-11.1,5.4s-11.1-2.4-11.1-5.4,5-5.4,11.1-5.4,11.1,2.4,11.1,5.4Z"/>
  <path class="st0" d="M28.5,293.8c0,3-5,5.4-11.1,5.4s-11.1-2.4-11.1-5.4,5-5.4,11.1-5.4,11.1,2.4,11.1,5.4Z"/>
  <path class="st0" d="M28.5,5.4c0,3-5,5.4-11.1,5.4s-11.1-2.4-11.1-5.4S11.3,0,17.4,0s11.1,2.4,11.1,5.4Z"/>
  <path class="st0" d="M28.5,14.2c0,3-5,5.4-11.1,5.4s-11.1-2.4-11.1-5.4,5-5.4,11.1-5.4,11.1,2.4,11.1,5.4Z"/>
  <path class="st0" d="M28.5,22.9c0,3-5,5.4-11.1,5.4s-11.1-2.4-11.1-5.4,5-5.4,11.1-5.4,11.1,2.4,11.1,5.4Z"/>
  <path class="st0" d="M28.5,31.6c0,3-5,5.4-11.1,5.4s-11.1-2.4-11.1-5.4,5-5.4,11.1-5.4,11.1,2.4,11.1,5.4Z"/>
  <path class="st0" d="M28.5,40.4c0,3-5,5.4-11.1,5.4s-11.1-2.4-11.1-5.4,5-5.4,11.1-5.4,11.1,2.4,11.1,5.4Z"/>
  <path class="st0" d="M28.5,49.1c0,3-5,5.4-11.1,5.4s-11.1-2.4-11.1-5.4,5-5.4,11.1-5.4,11.1,2.4,11.1,5.4Z"/>
  <path class="st0" d="M28.5,57.9c0,3-5,5.4-11.1,5.4s-11.1-2.4-11.1-5.4,5-5.4,11.1-5.4,11.1,2.4,11.1,5.4Z"/>
  <path class="st0" d="M28.5,66.6c0,3-5,5.4-11.1,5.4s-11.1-2.4-11.1-5.4,5-5.4,11.1-5.4,11.1,2.4,11.1,5.4Z"/>
  <path class="st0" d="M28.5,75.3c0,3-5,5.4-11.1,5.4s-11.1-2.4-11.1-5.4,5-5.4,11.1-5.4,11.1,2.4,11.1,5.4Z"/>
  <path class="st0" d="M28.5,84.1c0,3-5,5.4-11.1,5.4s-11.1-2.4-11.1-5.4,5-5.4,11.1-5.4,11.1,2.4,11.1,5.4Z"/>
  <path class="st0" d="M28.5,92.8c0,3-5,5.4-11.1,5.4s-11.1-2.4-11.1-5.4,5-5.4,11.1-5.4,11.1,2.4,11.1,5.4Z"/>
  <path class="st0" d="M28.5,101.6c0,3-5,5.4-11.1,5.4s-11.1-2.4-11.1-5.4,5-5.4,11.1-5.4,11.1,2.4,11.1,5.4Z"/>
  <path class="st0" d="M28.5,110.3c0,3-5,5.4-11.1,5.4s-11.1-2.4-11.1-5.4,5-5.4,11.1-5.4,11.1,2.4,11.1,5.4Z"/>
  <path class="st0" d="M28.5,119c0,3-5,5.4-11.1,5.4s-11.1-2.4-11.1-5.4,5-5.4,11.1-5.4,11.1,2.4,11.1,5.4Z"/>
  <path class="st0" d="M28.5,127.8c0,3-5,5.4-11.1,5.4s-11.1-2.4-11.1-5.4,5-5.4,11.1-5.4,11.1,2.4,11.1,5.4Z"/>
  <path class="st0" d="M28.5,136.5c0,3-5,5.4-11.1,5.4s-11.1-2.4-11.1-5.4,5-5.4,11.1-5.4,11.1,2.4,11.1,5.4Z"/>
  <path class="st0" d="M28.5,145.3c0,3-5,5.4-11.1,5.4s-11.1-2.4-11.1-5.4,5-5.4,11.1-5.4,11.1,2.4,11.1,5.4Z"/>
  <path class="st0" d="M28.5,302.6c0,3-5,5.4-11.1,5.4s-11.1-2.4-11.1-5.4,5-5.4,11.1-5.4,11.1,2.4,11.1,5.4Z"/>
  <path class="st3" d="M19.8,9.7v302.6h213.7c8.4,0,15.2-6.8,15.2-15.2V24.9c0-8.4-6.7-15.2-15.2-15.2H19.8Z"/>
  <path class="st1" d="M100,87.8h70.5c8.4,0,15.2,6.8,15.2,15.2h0v27.1c0,8.4-6.8,15.2-15.2,15.2h-70.5c-8.4,0-15.2-6.8-15.2-15.2h0v-27.1c0-8.4,6.8-15.2,15.2-15.2h0"/>
  <g class="st4">
    <text class="st5" transform="translate(102.8 130.8)"><tspan x="0" y="0">11</tspan></text>
  </g>
</svg>